<svg width="32" height="32" viewBox="0 0 32 32" fill="none" xmlns="http://www.w3.org/2000/svg">
<mask id="mask0" mask-type="alpha" maskUnits="userSpaceOnUse" x="0" y="0" width="32" height="32">
<rect width="32" height="32" fill="#C4C4C4"/>
</mask>
<g mask="url(#mask0)">
<path fill-rule="evenodd" clip-rule="evenodd" d="M25.3087 23.7927C20.6623 24.7871 15.7551 22.567 13.536 18.1185C11.317 13.6702 12.4948 8.41483 16.0834 5.30093C15.2227 5.48513 14.3709 5.77964 13.5468 6.19073C8.27426 8.82093 6.1322 15.2274 8.7624 20.5C11.3926 25.7725 17.7991 27.9146 23.0716 25.2844C23.8959 24.8732 24.6437 24.3697 25.3087 23.7927Z" fill="white"/>
<path d="M5 6L5.44903 7.38197H6.90211L5.72654 8.23607L6.17557 9.61803L5 8.76393L3.82443 9.61803L4.27346 8.23607L3.09789 7.38197H4.55097L5 6Z" fill="white"/>
<path d="M21.9021 1.88184L22.3511 3.2638H23.8042L22.6287 4.1179L23.0777 5.49987L21.9021 4.64577L20.7265 5.49987L21.1756 4.1179L20 3.2638H21.4531L21.9021 1.88184Z" fill="white"/>
<path d="M18.3817 12.9635L18.7184 14H19.8083L18.9266 14.6406L19.2634 15.6771L18.3817 15.0365L17.5 15.6771L17.8368 14.6406L16.9551 14H18.0449L18.3817 12.9635Z" fill="white"/>
<path d="M6.5 25L6.83677 26.0365H7.92658L7.04491 26.6771L7.38168 27.7135L6.5 27.0729L5.61832 27.7135L5.95509 26.6771L5.07342 26.0365H6.16323L6.5 25Z" fill="white"/>
<path d="M28 16L28.449 17.382H29.9021L28.7265 18.2361L29.1756 19.618L28 18.7639L26.8244 19.618L27.2735 18.2361L26.0979 17.382H27.551L28 16Z" fill="white"/>
</g>
</svg>
