<svg width="154" height="154" viewBox="0 0 154 154" fill="none" xmlns="http://www.w3.org/2000/svg">
  <path fill-rule="evenodd" clip-rule="evenodd" d="M23.3333 15.6668C19.0991 15.6668 15.6666 19.0993 15.6666 23.3335V130.667C15.6666 134.901 19.0991 138.333 23.3333 138.333H130.667C134.901 138.333 138.333 134.901 138.333 130.667V23.3335C138.333 19.0993 134.901 15.6668 130.667 15.6668H23.3333ZM0.333252 23.3335C0.333252 10.6309 10.6307 0.333496 23.3333 0.333496H130.667C143.369 0.333496 153.667 10.6309 153.667 23.3335V130.667C153.667 143.369 143.369 153.667 130.667 153.667H23.3333C10.6307 153.667 0.333252 143.369 0.333252 130.667V23.3335Z" fill="#181F22"/>
  <path fill-rule="evenodd" clip-rule="evenodd" d="M50.1667 46.3333C48.0496 46.3333 46.3333 48.0496 46.3333 50.1667C46.3333 52.2838 48.0496 54 50.1667 54C52.2838 54 54 52.2838 54 50.1667C54 48.0496 52.2838 46.3333 50.1667 46.3333ZM31 50.1667C31 39.5812 39.5812 31 50.1667 31C60.7521 31 69.3333 39.5812 69.3333 50.1667C69.3333 60.7521 60.7521 69.3333 50.1667 69.3333C39.5812 69.3333 31 60.7521 31 50.1667Z" fill="#181F22"/>
  <path fill-rule="evenodd" clip-rule="evenodd" d="M102.246 56.2455C105.24 53.2515 110.094 53.2515 113.088 56.2455L151.421 94.5788C154.415 97.5729 154.415 102.427 151.421 105.421C148.427 108.415 143.573 108.415 140.579 105.421L107.667 72.509L28.7546 151.421C25.7605 154.415 20.9063 154.415 17.9123 151.421C14.9182 148.427 14.9182 143.573 17.9123 140.579L102.246 56.2455Z" fill="#181F22"/>
</svg>
